<svg width="52" height="50" viewBox="0 0 52 50" fill="none" xmlns="http://www.w3.org/2000/svg">
<path fill-rule="evenodd" clip-rule="evenodd" d="M51.5059 0.146447C51.7012 0.34171 51.7012 0.658292 51.5059 0.853555L43.5489 8.81059C43.3536 9.00585 43.037 9.00585 42.8418 8.81059L39.8105 5.77934C39.6152 5.58407 39.6152 5.26749 39.8105 5.07223C40.0058 4.87697 40.3224 4.87697 40.5176 5.07223L43.1953 7.74992L50.7988 0.146447C50.9941 -0.0488157 51.3106 -0.0488157 51.5059 0.146447ZM51.5059 37.6582C51.7012 37.8534 51.7012 38.17 51.5059 38.3653L43.5489 46.3223C43.3536 46.5176 43.037 46.5176 42.8418 46.3223L39.8105 43.2911C39.6152 43.0958 39.6152 42.7792 39.8105 42.5839C40.0058 42.3887 40.3224 42.3887 40.5176 42.5839L43.1953 45.2616L50.7988 37.6582C50.9941 37.4629 51.3106 37.4629 51.5059 37.6582ZM51.5059 19.42C51.7012 19.2247 51.7012 18.9081 51.5059 18.7129C51.3106 18.5176 50.9941 18.5176 50.7988 18.7129L43.1953 26.3163L40.5176 23.6386C40.3224 23.4434 40.0058 23.4434 39.8105 23.6386C39.6152 23.8339 39.6152 24.1505 39.8105 24.3457L42.8418 27.377C43.037 27.5723 43.3536 27.5723 43.5489 27.377L51.5059 19.42ZM36.125 2.39453C36.125 1.41091 36.9493 0.628907 37.9468 0.628907H46.6939V1.88672H37.9468C37.6422 1.88672 37.4109 2.12257 37.4109 2.39453V9.97266C37.4109 10.2446 37.6422 10.4805 37.9468 10.4805H48.4439C48.7485 10.4805 48.9797 10.2446 48.9797 9.97266V5.66016H50.2656V9.97266C50.2656 10.9563 49.4413 11.7383 48.4439 11.7383H37.9468C36.9493 11.7383 36.125 10.9563 36.125 9.97266V5.67578H28.2891V24.1211H36.125V20.9609C36.125 19.9773 36.9493 19.1953 37.9468 19.1953H46.6939V20.4531H37.9468C37.6422 20.4531 37.4109 20.689 37.4109 20.9609V28.5391C37.4109 28.811 37.6422 29.0469 37.9468 29.0469H48.4439C48.7485 29.0469 48.9797 28.811 48.9797 28.5391V24.2266H50.2656V28.5391C50.2656 29.5227 49.4413 30.3047 48.4439 30.3047H37.9468C36.9493 30.3047 36.125 29.5227 36.125 28.5391V25.3789H28.2891V43.8242H36.125V39.9062C36.125 38.9226 36.9493 38.1406 37.9468 38.1406H46.6939V39.3984H37.9468C37.6422 39.3984 37.4109 39.6343 37.4109 39.9062V47.4844C37.4109 47.7563 37.6422 47.9922 37.9468 47.9922H48.4439C48.7485 47.9922 48.9797 47.7563 48.9797 47.4844V43.1719H50.2656V47.4844C50.2656 48.468 49.4413 49.25 48.4439 49.25H37.9468C36.9493 49.25 36.125 48.468 36.125 47.4844V45.082H28.0391C27.4825 45.082 27.0312 44.6308 27.0312 44.0742V5.42578C27.0312 4.86918 27.4825 4.41797 28.0391 4.41797H36.125V2.39453ZM12.4145 15.2773H12.4141L12.7427 16.1385C13.4101 16.2398 14.0537 16.4136 14.6651 16.6516L16.0157 15.566L16.0899 15.6088L16.0931 15.6067L17.2507 16.2751L17.2505 16.2789L17.3283 16.3238L17.0541 18.0323C17.5732 18.4489 18.0457 18.9212 18.4624 19.4403L19.3768 19.2988L19.3753 19.2962L19.4061 19.2943L20.1745 19.1755L20.2151 19.2458L20.221 19.2454L20.8894 20.403L20.8861 20.408L20.9323 20.488L19.8431 21.8275C20.082 22.4403 20.2563 23.0855 20.3578 23.7546L21.2188 24.0887V24.0816L21.2816 24.1131L21.9714 24.3807V24.458L21.9766 24.4605V25.7973L21.9714 25.7999V25.8963L20.3564 26.5125C20.2543 27.1809 20.0795 27.8254 19.8402 28.4377L20.4177 29.1561L20.4225 29.1477L20.4756 29.2281L20.9249 29.7871L20.8875 29.8519L20.8894 29.8548L20.221 31.0124L20.2176 31.0122L20.1671 31.0996L18.4563 30.8251C18.04 31.3426 17.5682 31.8135 17.0499 32.2289L17.1911 33.1421L17.1999 33.137L17.206 33.2384L17.3154 33.9458L16.0029 34.7036L14.6571 33.6093C14.0486 33.8455 13.4083 34.0182 12.7445 34.119L12.125 35.7427H10.6094L9.97869 34.1173C9.3152 34.0157 8.67533 33.8423 8.06723 33.6054L6.71669 34.7036L5.40412 33.9458L5.67134 32.2183C5.15752 31.8049 4.68958 31.3369 4.27636 30.823L2.55248 31.0996L1.79467 29.7871L2.88929 28.4253C2.65323 27.8186 2.48041 27.1803 2.37894 26.5185L0.748192 25.8963L0.748192 24.3807L1.50402 24.0874L1.51562 24.0816V24.0829L2.37753 23.7485C2.47842 23.0861 2.65077 22.4471 2.88648 21.8398L1.78727 20.488L2.54508 19.1755L3.30398 19.2928L3.35912 19.2962L3.35635 19.3009L4.27035 19.4423C4.68393 18.9268 5.1525 18.4574 5.66717 18.0429L5.39128 16.3238L6.70385 15.566L7.27509 16.0252L7.34838 16.0736L7.34076 16.078L8.05928 16.6555C8.67031 16.4168 9.31348 16.2423 9.98052 16.1402L10.6094 14.5195H10.6988H12.0356H12.125L12.413 15.2744L12.4145 15.2773ZM12.5039 13.7617L13.3628 15.4796C13.7382 15.5568 14.1058 15.6554 14.4643 15.774L16.0664 14.7163L18.0352 15.853L17.92 17.7726C18.203 18.0248 18.4713 18.2931 18.7236 18.5761L20.6431 18.4609L21.7798 20.4297L20.7221 22.0318C20.8407 22.3903 20.9393 22.7579 21.0165 23.1333L22.7344 23.9922V26.2656L21.0165 27.1246C20.9393 27.5 20.8407 27.8675 20.7221 28.226L21.7798 29.8281L20.6431 31.7969L18.7236 31.6817C18.4713 31.9647 18.203 32.233 17.92 32.4853L18.0352 34.4048L16.0664 35.5415L14.4643 34.4838C14.1058 34.6024 13.7382 34.701 13.3628 34.7782L12.5039 36.4961H10.2305L9.37153 34.7782C8.99614 34.701 8.62855 34.6024 8.27007 34.4838L6.66803 35.5415L4.69917 34.4048L4.81439 32.4853C4.53141 32.233 4.26308 31.9647 4.01083 31.6817L2.09127 31.7969L0.954551 29.8281L2.01231 28.226C1.89369 27.8676 1.7951 27.5 1.71787 27.1246L0 26.2656V23.9922L1.71787 23.1333C1.7951 22.7579 1.89369 22.3903 2.01231 22.0318L0.954551 20.4297L2.09127 18.4609L4.01083 18.5761C4.26308 18.2931 4.53141 18.0248 4.81439 17.7725L4.69917 15.853L6.66803 14.7163L8.27007 15.774C8.62855 15.6554 8.99614 15.5568 9.37153 15.4796L10.2305 13.7617H12.5039ZM11.3672 31.2992C14.775 31.2992 17.5375 28.5367 17.5375 25.1289C17.5375 21.7211 14.775 18.9586 11.3672 18.9586C7.9594 18.9586 5.19685 21.7211 5.19685 25.1289C5.19685 28.5367 7.9594 31.2992 11.3672 31.2992ZM11.3672 32.0571C15.1935 32.0571 18.2953 28.9552 18.2953 25.1289C18.2953 21.3026 15.1935 18.2008 11.3672 18.2008C7.54088 18.2008 4.43904 21.3026 4.43904 25.1289C4.43904 28.9552 7.54088 32.0571 11.3672 32.0571Z" fill="url(#paint0_linear_353_435)"/>
<defs>
<linearGradient id="paint0_linear_353_435" x1="11.5" y1="-9.14578e-07" x2="45" y2="54.5" gradientUnits="userSpaceOnUse">
<stop stop-color="#0496AF"/>
<stop offset="1" stop-color="#064CAE"/>
</linearGradient>
</defs>
</svg>
