<svg width="56" height="50" viewBox="0 0 56 50" fill="none" xmlns="http://www.w3.org/2000/svg">
<path fill-rule="evenodd" clip-rule="evenodd" d="M0 4.02315C0 2.017 1.62631 0.390625 3.63254 0.390625H51.8335C53.8397 0.390625 55.466 2.017 55.466 4.02315V37.0028C55.466 39.0089 53.8397 40.6353 51.8335 40.6353H33.6829L34.9758 47.746H37.4806L37.5031 47.7501C37.5031 47.934 37.5058 48.1421 37.5087 48.3624C37.5119 48.61 37.5154 48.8729 37.5154 49.1339L37.487 49.1406H17.7582V47.746H20.4903L21.7831 40.6353H3.63254C1.62631 40.6353 0 39.0089 0 37.0028V4.02315ZM3.63254 1.73625C2.36951 1.73625 1.34564 2.76013 1.34564 4.02315V33.3702H54.1204V4.02315C54.1204 2.76013 53.0965 1.73625 51.8335 1.73625H3.63254ZM1.34564 34.7159V37.0028C1.34564 38.2658 2.36951 39.2897 3.63254 39.2897H51.8335C53.0965 39.2897 54.1204 38.2658 54.1204 37.0028V34.7159H1.34564ZM23.1508 40.6353L21.858 47.746H33.6081L32.3152 40.6353H23.1508ZM25.7328 8.33435V18.6944L33.0584 26.02C32.0498 26.8443 30.8871 27.4657 29.6344 27.8457C28.0614 28.3229 26.3949 28.4047 24.7827 28.084C23.1704 27.7633 21.6621 27.05 20.3914 26.0071C19.1207 24.9643 18.1268 23.6241 17.4977 22.1054C16.8687 20.5867 16.6238 18.9363 16.7849 17.3004C16.9461 15.6645 17.5082 14.0935 18.4214 12.7267C19.3347 11.3599 20.571 10.2394 22.0207 9.46452C23.1752 8.84744 24.4367 8.46468 25.7328 8.33435ZM34.5053 26.0582L34.5081 26.0555L26.7328 18.2802V7.28421C26.3981 7.28421 26.0645 7.29948 25.7328 7.32977C24.2719 7.46318 22.849 7.88791 21.5493 8.5826C19.9545 9.43503 18.5946 10.6676 17.59 12.1711C16.5853 13.6747 15.967 15.4028 15.7898 17.2024C15.6125 19.002 15.8818 20.8175 16.5738 22.4881C17.2658 24.1588 18.3592 25.633 19.757 26.7801C21.1548 27.9273 22.814 28.712 24.5876 29.0648C26.3611 29.4176 28.1943 29.3275 29.9247 28.8026C31.3349 28.3748 32.6414 27.669 33.7687 26.7303C34.0237 26.518 34.2696 26.2938 34.5053 26.0582ZM29.3909 6.69077C30.3605 6.78827 31.3125 7.02722 32.2162 7.40152C33.4289 7.90387 34.5309 8.64017 35.4591 9.56837C36.3873 10.4966 37.1236 11.5985 37.6259 12.8113C38.0002 13.7149 38.2392 14.6669 38.3367 15.6366H29.3909V6.69077ZM29.3909 5.68619C30.4921 5.78676 31.5737 6.05302 32.5988 6.47765C33.9329 7.03024 35.1451 7.84019 36.1662 8.86127C37.1873 9.88232 37.9972 11.0945 38.5498 12.4286C38.9744 13.4537 39.2407 14.5354 39.3412 15.6366C39.3716 15.9685 39.3868 16.3021 39.3868 16.6366H28.3909V5.64062C28.7253 5.64062 29.059 5.65588 29.3909 5.68619ZM38.455 22.12C38.0807 23.0236 37.5765 23.8658 36.9598 24.6203L31.6342 19.2947H39.1657C39.0682 20.2643 38.8293 21.2163 38.455 22.12ZM39.3789 22.5027C38.9543 23.5278 38.3777 24.4809 37.6701 25.3307C37.4572 25.5865 37.2323 25.8329 36.9962 26.069L36.9952 26.07L29.2199 18.2947H40.2159C40.2159 18.6291 40.2006 18.9628 40.1703 19.2947C40.0698 20.3959 39.8035 21.4776 39.3789 22.5027Z" fill="url(#paint0_linear_353_463)"/>
<defs>
<linearGradient id="paint0_linear_353_463" x1="12.3491" y1="0.390624" x2="44.2295" y2="56.6564" gradientUnits="userSpaceOnUse">
<stop stop-color="#0496AF"/>
<stop offset="1" stop-color="#064CAE"/>
</linearGradient>
</defs>
</svg>
