<svg width="60" height="58" viewBox="0 0 60 58" fill="none" xmlns="http://www.w3.org/2000/svg">
<path fill-rule="evenodd" clip-rule="evenodd" d="M16.6614 1.70601H36.8307C39.0101 1.70601 40.7768 3.47276 40.7768 5.65216V7.40601H42.0922V5.65216C42.0922 2.7463 39.7365 0.390625 36.8307 0.390625H16.6614C13.7556 0.390625 11.3999 2.7463 11.3999 5.65216V8.28293H12.7153V5.65216C12.7153 3.47276 14.482 1.70601 16.6614 1.70601ZM11.3999 52.1291V38.0983H12.7153V52.1291C12.7153 54.3085 14.482 56.0752 16.6614 56.0752H36.8307C39.0101 56.0752 40.7768 54.3085 40.7768 52.1291V19.6829H42.0922V52.1291C42.0922 55.035 39.7365 57.3906 36.8307 57.3906H16.6614C13.7556 57.3906 11.3999 55.035 11.3999 52.1291ZM47.7924 11.5368H36.3924C35.0415 11.5368 33.9463 12.632 33.9463 13.9829C33.9463 15.3339 35.0415 16.4291 36.3924 16.4291H47.7924C49.1434 16.4291 50.2386 15.3339 50.2386 13.9829C50.2386 12.632 49.1434 11.5368 47.7924 11.5368ZM36.3924 10.0368C34.213 10.0368 32.4463 11.8035 32.4463 13.9829C32.4463 16.1623 34.213 17.9291 36.3924 17.9291H47.7924C49.9718 17.9291 51.7386 16.1623 51.7386 13.9829C51.7386 11.8035 49.9718 10.0368 47.7924 10.0368H36.3924ZM44 48.9478L44.7137 50.3752H47.6709L48.6945 48.328C49.0695 48.2471 49.4378 48.1484 49.7986 48.0329L51.708 49.2935L54.269 47.8149L54.1316 45.5272C54.4126 45.2719 54.6813 45.0032 54.9366 44.7222L57.2243 44.8596L58.7029 42.2986L57.4422 40.3893C57.5578 40.0284 57.6565 39.6601 57.7374 39.2851L59.7846 38.2615V35.3043L57.7374 34.2807C57.6565 33.9058 57.5578 33.5374 57.4422 33.1766L58.7029 31.2673L57.2243 28.7063L54.9366 28.8436C54.6813 28.5626 54.4126 28.2939 54.1316 28.0387L54.269 25.7509L51.708 24.2723L49.7986 25.533C49.4378 25.4174 49.0695 25.3187 48.6945 25.2378L47.6709 23.1906H44.7137L44 24.6181V26.5538C44.197 26.5118 44.3961 26.4753 44.5971 26.4446L44.7289 26.4244L45.4592 24.5422H46.9244L47.6418 26.4225L47.7746 26.4426C48.5421 26.5591 49.2822 26.759 49.9854 27.0327L50.1095 27.081L51.678 25.8203L51.7519 25.8629L51.7556 25.8605L52.8698 26.5037L52.8695 26.5082L52.9469 26.5529L52.6285 28.5368L52.733 28.6207C53.3302 29.0999 53.8736 29.6432 54.3529 30.2403L54.4363 30.3441L56.4245 30.0365L56.4645 30.1059L56.4715 30.1055L57.1147 31.2196L57.1109 31.2254L57.1571 31.3054L55.8922 32.8608L55.9409 32.9858C56.2157 33.6906 56.4161 34.4325 56.5328 35.202L56.5528 35.3339L58.427 36.0612V36.1366L58.4331 36.1397V37.4262L58.427 37.4292V37.5263L56.5514 38.2419L56.5312 38.3745C56.4138 39.1433 56.2128 39.8844 55.9377 40.5885L55.8891 40.7127L57.1489 42.2799L57.1125 42.3428L57.1147 42.3462L56.4715 43.4604L56.4674 43.4602L56.4163 43.5488L54.4298 43.23L54.346 43.3342C53.8671 43.9295 53.3243 44.4712 52.7281 44.949L52.6242 45.0323L52.9326 47.0264L51.6637 47.759L50.101 46.4882L49.9762 46.5367C49.2764 46.8084 48.5401 47.0069 47.7767 47.1229L47.6439 47.1431L46.9244 49.0289H45.4592L44.7267 47.1411L44.595 47.1209C44.3948 47.0902 44.1964 47.0539 44 47.012V48.9478ZM44 44.8673C44.6988 45.0564 45.4338 45.1572 46.1923 45.1572C50.8173 45.1572 54.5666 41.4079 54.5666 36.7829C54.5666 32.1579 50.8173 28.4086 46.1923 28.4086C45.4338 28.4086 44.6988 28.5095 44 28.6985V30.1091C44.6898 29.8827 45.4268 29.7602 46.1923 29.7602C50.0709 29.7602 53.2151 32.9044 53.2151 36.7829C53.2151 40.6615 50.0709 43.8057 46.1923 43.8057C45.4268 43.8057 44.6898 43.6832 44 43.4567V44.8673ZM22.8 4.77524C22.8 4.29093 23.1927 3.89832 23.677 3.89832H29.8154C30.2997 3.89832 30.6924 4.29093 30.6924 4.77524C30.6924 5.25955 30.2997 5.65216 29.8154 5.65216H23.677C23.1927 5.65216 22.8 5.25955 22.8 4.77524ZM18.4155 39.8522C17.9312 39.8522 17.5386 40.2448 17.5386 40.7291C17.5386 41.2134 17.9312 41.606 18.4155 41.606H35.077C35.5613 41.606 35.954 41.2134 35.954 40.7291C35.954 40.2448 35.5613 39.8522 35.077 39.8522H18.4155ZM17.5386 45.1137C17.5386 44.6294 17.9312 44.2368 18.4155 44.2368H26.3078C26.7921 44.2368 27.1847 44.6294 27.1847 45.1137C27.1847 45.598 26.7921 45.9906 26.3078 45.9906H18.4155C17.9312 45.9906 17.5386 45.598 17.5386 45.1137ZM18.4155 48.6214C17.9312 48.6214 17.5386 49.014 17.5386 49.4983C17.5386 49.9826 17.9312 50.3752 18.4155 50.3752H31.5693C32.0537 50.3752 32.4463 49.9826 32.4463 49.4983C32.4463 49.014 32.0537 48.6214 31.5693 48.6214H18.4155ZM7.89227 40.7291C7.89227 41.2134 7.49966 41.606 7.01535 41.606C6.53104 41.606 6.13843 41.2134 6.13843 40.7291C6.13843 40.2448 6.53104 39.8522 7.01535 39.8522C7.49966 39.8522 7.89227 40.2448 7.89227 40.7291ZM7.01535 45.9906C7.49966 45.9906 7.89227 45.598 7.89227 45.1137C7.89227 44.6294 7.49966 44.2368 7.01535 44.2368C6.53104 44.2368 6.13843 44.6294 6.13843 45.1137C6.13843 45.598 6.53104 45.9906 7.01535 45.9906ZM7.89227 49.4983C7.89227 49.9826 7.49966 50.3752 7.01535 50.3752C6.53104 50.3752 6.13843 49.9826 6.13843 49.4983C6.13843 49.014 6.53104 48.6214 7.01535 48.6214C7.49966 48.6214 7.89227 49.014 7.89227 49.4983ZM1.20391 23.1906C1.20391 17.0998 5.96516 12.1622 11.8385 12.1622C17.7118 12.1622 22.473 17.0998 22.473 23.1906C22.473 25.6225 21.714 27.8706 20.4282 29.6939C20.4146 29.6369 20.3986 29.5799 20.3801 29.523C20.1759 28.8946 19.6998 28.3802 19.0209 27.98C17.687 27.1937 15.3715 26.7279 11.8386 26.7279C8.59538 26.7279 6.38688 27.1968 5.05243 27.9793C4.37687 28.3754 3.88857 28.874 3.63431 29.4697C3.55912 29.6459 3.50695 29.8247 3.47587 30.0044C2.05281 28.1287 1.20391 25.7625 1.20391 23.1906ZM11.6378 34.2171C9.45351 34.1752 7.43017 33.4503 5.75804 32.2397C5.22591 31.7861 4.87898 31.3141 4.72978 30.8857C4.61185 30.547 4.61909 30.2471 4.73522 29.975C4.85562 29.6929 5.1229 29.3722 5.645 29.0661C6.70584 28.444 8.66091 27.9764 11.8386 27.9764C15.3285 27.9764 17.3771 28.4471 18.4259 29.0654C18.9384 29.3674 19.1582 29.6723 19.2393 29.9218C19.3183 30.1649 19.299 30.4586 19.1255 30.8185C18.7617 31.5732 17.7999 32.4317 16.4322 33.1095C15.0865 33.7764 13.4442 34.2189 11.8386 34.2189C11.7715 34.2189 11.7045 34.2183 11.6378 34.2171ZM5.0348 33.2388C1.98972 31.0173 0 27.3449 0 23.1906C0 16.4103 5.30026 10.9137 11.8385 10.9137C18.3767 10.9137 23.6769 16.4103 23.6769 23.1906C23.6769 29.971 18.3767 35.4675 11.8385 35.4675C11.7625 35.4675 11.6866 35.4668 11.611 35.4653C9.70069 35.4297 7.93813 34.9492 6.54781 34.2316C5.98931 33.9433 5.47627 33.6088 5.0348 33.2388ZM11.8385 17.1562C10.3978 17.1562 9.22999 18.3673 9.22999 19.8613C9.22999 21.3553 10.3978 22.5664 11.8385 22.5664C13.2791 22.5664 14.4469 21.3553 14.4469 19.8613C14.4469 18.3673 13.2791 17.1562 11.8385 17.1562ZM8.02608 19.8613C8.02608 17.6778 9.73294 15.9077 11.8385 15.9077C13.944 15.9077 15.6508 17.6778 15.6508 19.8613C15.6508 22.0448 13.944 23.8149 11.8385 23.8149C9.73294 23.8149 8.02608 22.0448 8.02608 19.8613Z" fill="url(#paint0_linear_353_465)"/>
<defs>
<linearGradient id="paint0_linear_353_465" x1="13.3106" y1="0.390624" x2="52.0809" y2="63.4692" gradientUnits="userSpaceOnUse">
<stop stop-color="#0496AF"/>
<stop offset="1" stop-color="#064CAE"/>
</linearGradient>
</defs>
</svg>
