<svg width="55" height="52" viewBox="0 0 55 52" fill="none" xmlns="http://www.w3.org/2000/svg">
<path fill-rule="evenodd" clip-rule="evenodd" d="M4.65676 31.3917H3.28665C1.47151 31.3917 0 29.9186 0 28.1013V20.6981H1.60952V16.0293H3.25285L3.25285 20.6981H7.38684V16.0293H9.03016V20.6981H10.6816V28.1013C10.6816 29.9186 9.2101 31.3917 7.39496 31.3917H6.22425C7.21592 35.6022 9.32856 39.4697 12.3423 42.5801C15.4926 45.8314 19.4987 48.1226 23.8965 49.188C28.2942 50.2536 32.9035 50.0498 37.1903 48.6002C41.477 47.1508 45.2658 44.515 48.1175 40.9981C50.9692 37.4813 52.7672 33.2276 53.3031 28.7297C53.839 24.232 53.091 19.6741 51.1456 15.5845C49.2001 11.4949 46.137 8.04067 42.3111 5.62233C38.4852 3.20419 34.0532 1.92071 29.5285 1.92071V0.390625C30.0778 0.390625 30.6259 0.408498 31.1718 0.443643C35.4097 0.717971 39.5214 2.04964 43.127 4.32881C47.1971 6.90139 50.4558 10.5759 52.5254 14.9266C54.595 19.2773 55.3908 24.126 54.8207 28.9111C54.2506 33.6959 52.3378 38.2211 49.3041 41.9625C46.2703 45.7037 42.2397 48.5078 37.6793 50.0498C33.1189 51.5919 28.2155 51.8086 23.537 50.6751C18.8586 49.5417 14.5967 47.1042 11.2453 43.6452C8.2763 40.5812 6.12947 36.8264 4.99036 32.7308C4.86729 32.2881 4.75605 31.8417 4.65676 31.3917ZM1.64332 22.3433H9.03829V28.1013C9.03829 29.0099 8.30258 29.7465 7.39496 29.7465H3.28665C2.37903 29.7465 1.64332 29.0099 1.64332 28.1013V22.3433ZM32.9851 18.7797H19.8922C19.0935 18.7797 18.4461 19.4017 18.4461 20.1688V30.6124C18.4461 31.3796 19.0935 32.0015 19.8922 32.0015H32.9851C33.7837 32.0015 34.4312 31.3796 34.4312 30.6124V20.1688C34.4312 19.4017 33.7837 18.7797 32.9851 18.7797ZM35.8773 30.6124V29.7686L44.0491 32.6926C44.994 33.0307 46 32.3594 46 31.3908V19.3904C46 18.4218 44.994 17.7506 44.0491 18.0887L35.8773 21.0126V20.1688C35.8773 18.6345 34.5824 17.3906 32.9851 17.3906H19.8922C18.2949 17.3906 17 18.6345 17 20.1688V30.6124C17 32.1468 18.2949 33.3906 19.8922 33.3906H32.9851C34.5824 33.3906 35.8773 32.1468 35.8773 30.6124ZM44.5539 31.3908L35.8773 28.2863V22.495L44.5539 19.3904V31.3908Z" fill="url(#paint0_linear_353_464)"/>
<defs>
<linearGradient id="paint0_linear_353_464" x1="12.2453" y1="0.390624" x2="46.4912" y2="57.6792" gradientUnits="userSpaceOnUse">
<stop stop-color="#0496AF"/>
<stop offset="1" stop-color="#064CAE"/>
</linearGradient>
</defs>
</svg>
